<svg width="25" height="25" viewBox="0 0 25 25" fill="none" xmlns="http://www.w3.org/2000/svg">
<path d="M10.2134 0.146365C8.50476 0.452224 6.40593 1.35926 5.02429 2.39285C2.47195 4.30183 0.678982 7.19168 0.141091 10.2819C-0.0487525 11.421 -0.0487526 13.4249 0.151638 14.5745C0.805544 18.3819 3.27351 21.7358 6.73289 23.5182C10.9095 25.6803 16.0563 25.269 19.8216 22.4741C25.3692 18.3608 26.5399 10.5561 22.4477 5.02957C20.5598 2.45613 17.6911 0.684255 14.5692 0.146365C13.4618 -0.054026 11.2891 -0.0434791 10.2134 0.146365ZM14.2423 1.64402C16.6048 2.05535 18.5559 3.0784 20.254 4.81863C25.211 9.88113 24.1247 18.1499 18.0286 21.8307C13.8098 24.3725 8.34656 23.7186 4.8239 20.2487C3.08367 18.5401 2.06062 16.5889 1.64929 14.237C1.26961 12.0221 1.64929 9.51199 2.66179 7.50808C4.80281 3.25769 9.59109 0.842458 14.2423 1.64402Z" fill="#73BFFF"/>
<path d="M14.1897 7.36047C13.9999 7.50813 13.9261 7.64523 13.9261 7.93C13.9261 8.25695 14.0526 8.41516 15.5925 9.96555L17.2589 11.6425L11.3104 11.6636L5.36201 11.6952L5.17217 11.9378C4.92959 12.2331 4.92959 12.655 5.17217 12.9503L5.36201 13.1929L11.3104 13.2245L17.2589 13.2456L15.5925 14.9226C14.0632 16.4624 13.9261 16.6206 13.9261 16.9581C13.9261 17.2323 13.9999 17.38 14.1897 17.5277C14.7382 17.9601 14.7909 17.9179 17.4382 15.2706C19.7058 13.003 19.9062 12.7816 19.9062 12.4652C19.9062 12.1487 19.7058 11.9273 17.4382 9.65969C14.7909 6.97023 14.7382 6.93859 14.1897 7.36047Z" fill="#73BFFF"/>
</svg>
