<svg width="61" height="61" viewBox="0 0 61 61" fill="none" xmlns="http://www.w3.org/2000/svg">
<path d="M0.894472 35.8827C1.6308 39.996 3.81439 45.0488 6.30268 48.3749C10.8984 54.5195 17.8554 58.8359 25.2949 60.1308C28.0371 60.5878 32.8613 60.5878 35.6288 60.1054C44.7949 58.5312 52.8691 52.5898 57.1601 44.2617C62.3652 34.207 61.3749 21.8163 54.6464 12.7519C44.7441 -0.603579 25.955 -3.42194 12.6503 6.42962C6.45502 10.9745 2.18939 17.8808 0.894472 25.3964C0.41205 28.0624 0.437441 33.2929 0.894472 35.8827ZM12.1171 29.1288C12.7265 28.037 24.0507 16.916 24.7871 16.7382C25.9042 16.4589 27.0214 16.8144 27.8085 17.7284C28.4433 18.414 28.5449 18.7695 28.5449 19.7851L28.5449 21.0038L25.371 24.2031L22.1972 27.4023L34.3593 27.4023C47.5624 27.4023 47.5878 27.4023 48.6288 28.7226C49.3398 29.6367 49.3398 31.414 48.6542 32.3027C47.5878 33.6738 47.8417 33.6484 34.4863 33.6484L22.1972 33.6484L25.1171 36.5683C26.6913 38.1933 28.1386 39.7675 28.291 40.0468C28.4433 40.3261 28.5449 41.0117 28.5449 41.5449C28.5449 43.5761 26.1074 45.0742 24.33 44.1347C23.9492 43.9316 20.9785 41.0878 17.7031 37.8124C11.8378 31.8964 11.7871 31.8456 11.7871 30.83C11.7617 30.246 11.914 29.4843 12.1171 29.1288Z" fill="#9C9C9C"/>
</svg>
