<svg width="25" height="26" viewBox="0 0 25 26" fill="none" xmlns="http://www.w3.org/2000/svg">
<path d="M9.10643 0.703275C7.21012 0.904558 5.30323 1.6885 3.7989 2.88561C1.16102 4.99379 -0.290336 8.4368 0.0486677 11.7951C0.408859 15.3122 2.51704 18.3633 5.67401 19.9206C8.89455 21.5096 12.6978 21.2766 15.7382 19.2955L16.1514 19.0307L19.3507 22.2194C21.8826 24.7514 22.603 25.44 22.7937 25.5247C22.995 25.6201 23.1115 25.6412 23.4505 25.6412C23.8319 25.6412 23.8955 25.6201 24.1709 25.4717C24.5099 25.2811 24.6582 25.1327 24.8595 24.762C25.0396 24.4124 25.0502 23.8085 24.8701 23.4377C24.7854 23.247 24.1179 22.5478 21.5648 19.9947L18.3761 16.7954L18.6409 16.3822C19.9122 14.4329 20.4948 12.1235 20.2724 9.87757C19.9228 6.33921 17.8146 3.26699 14.647 1.6991C12.9732 0.872777 10.9604 0.512585 9.10643 0.703275ZM11.4689 3.90262C13.9902 4.38994 16.056 6.22268 16.8505 8.64868C17.2955 10.0153 17.2955 11.6256 16.8505 12.9922C16.5009 14.0621 15.9395 14.9626 15.1237 15.7784C14.1809 16.7212 13.1427 17.3251 11.882 17.6323C9.45603 18.2361 6.97706 17.5475 5.20788 15.7784C4.18028 14.7613 3.53405 13.543 3.24802 12.1023C3.13148 11.509 3.13148 10.1318 3.24802 9.52797C3.70355 7.16554 5.29263 5.21626 7.49616 4.31578C8.02585 4.09331 8.75683 3.90262 9.28652 3.82847C9.79503 3.7649 10.9815 3.80728 11.4689 3.90262Z" fill="#747474"/>
</svg>
