<svg width="23" height="23" viewBox="0 0 23 23" fill="none" xmlns="http://www.w3.org/2000/svg">
<path d="M12.0929 0.808594C12.4882 0.8625 12.8745 0.907422 13.2698 0.979297C15.3272 1.33867 17.1421 2.22813 18.6874 3.62969C20.637 5.39961 21.814 7.60078 22.1644 10.2063C22.8472 15.2734 20.044 19.9992 15.2823 21.859C13.746 22.4609 12.1558 22.7035 10.5116 22.5418C6.45967 22.1465 3.49482 20.107 1.60811 16.5133C0.970215 15.3004 0.628809 13.9887 0.520996 12.6141C0.512012 12.5422 0.494043 12.4793 0.476074 12.4074C0.476074 11.9223 0.476074 11.4461 0.476074 10.9609C0.512012 10.6914 0.538965 10.4309 0.574902 10.1613C0.96123 7.61875 2.07529 5.44453 3.96201 3.69258C5.52529 2.26406 7.36709 1.34766 9.46943 0.979297C9.85576 0.907422 10.2511 0.8625 10.6374 0.808594C11.1226 0.808594 11.6077 0.808594 12.0929 0.808594ZM11.3741 1.80586C5.9206 1.79688 1.50029 6.2082 1.47334 11.6887C1.44639 17.1242 5.85771 21.5535 11.3562 21.5895C16.7827 21.6344 21.2659 17.1512 21.2659 11.6977C21.2569 6.23516 16.8366 1.81484 11.3741 1.80586Z" fill="#E43434"/>
<path d="M13.7191 16.0371C13.6742 16.1988 13.6382 16.3695 13.5843 16.5312C13.5664 16.5761 13.5214 16.6211 13.4675 16.639C12.9824 16.8007 12.4972 17.0164 11.9941 17.1062C11.3113 17.232 10.6195 17.1961 10.0535 16.6929C9.70308 16.3785 9.59526 15.9832 9.6312 15.525C9.68511 14.7793 9.95464 14.0785 10.1523 13.3687C10.2781 12.8925 10.4128 12.4164 10.5117 11.9312C10.7093 10.9789 10.1972 10.8261 9.43354 10.9519C9.26284 10.9789 9.09214 11.0418 8.8855 11.1046C8.9394 10.88 8.99331 10.6824 9.04722 10.4847C9.0562 10.4578 9.09214 10.4308 9.12808 10.4218C9.78394 10.1972 10.4128 9.90973 11.1226 9.90074C11.6796 9.89176 12.1917 10.0086 12.5871 10.4398C12.8476 10.7183 12.9195 11.0687 12.9105 11.4371C12.8925 12.1738 12.623 12.8476 12.4433 13.5394C12.2996 14.0964 12.1648 14.6625 12.021 15.2195C12.0031 15.2734 12.0031 15.3273 12.0031 15.3902C11.9671 15.9113 12.1917 16.1539 12.7308 16.1449C13.0542 16.1449 13.3687 16.082 13.7191 16.0371Z" fill="#E43434"/>
<path d="M12.4702 6.26216C13.3237 6.26216 13.9347 6.90903 13.8359 7.70864C13.764 8.29263 13.153 8.78677 12.4792 8.80474C11.8144 8.82271 11.1765 8.33755 11.0777 7.7356C10.9519 6.99888 11.5359 6.2981 12.2995 6.25317C12.3534 6.25317 12.4073 6.26216 12.4702 6.26216Z" fill="#E43434"/>
</svg>
