<?xml version="1.0" encoding="utf-8"?>
<!-- Generator: Adobe Illustrator 21.0.0, SVG Export Plug-In . SVG Version: 6.00 Build 0)  -->
<svg version="1.1" id="圖層_1" xmlns="http://www.w3.org/2000/svg" xmlns:xlink="http://www.w3.org/1999/xlink" x="0px" y="0px"
	 viewBox="0 0 25 25" style="enable-background:new 0 0 25 25;" xml:space="preserve">
<style type="text/css">
	.st0{fill:#73BFFF;}
</style>
<path class="st0" d="M14.2,7.4c-0.2,0.1-0.3,0.3-0.3,0.6c0,0.3,0.1,0.5,1.7,2l1.7,1.7l-5.9,0l-5.9,0l-0.2,0.2c-0.2,0.3-0.2,0.7,0,1
	l0.2,0.2l5.9,0l5.9,0l-1.7,1.7c-1.5,1.5-1.7,1.7-1.7,2c0,0.3,0.1,0.4,0.3,0.6c0.5,0.4,0.6,0.4,3.2-2.3c2.3-2.3,2.5-2.5,2.5-2.8
	c0-0.3-0.2-0.5-2.5-2.8C14.8,7,14.7,6.9,14.2,7.4z"/>
</svg>
