<svg width="20" height="18" viewBox="0 0 20 18" fill="none" xmlns="http://www.w3.org/2000/svg">
<path d="M19.1719 16.0391C19.1485 15.9766 18.6875 15.1563 18.1485 14.2188C17.6094 13.2813 15.7031 9.98438 13.9219 6.89063C12.0156 3.58594 10.625 1.21875 10.5469 1.14062C10.461 1.05469 10.3516 0.984375 10.2344 0.953125C10.0235 0.882812 9.96096 0.882812 9.74221 0.953125C9.64846 0.976563 9.52346 1.05469 9.45315 1.125C9.32815 1.25 0.890648 15.8281 0.812523 16.0391C0.718773 16.3203 0.796898 16.6016 1.02346 16.8359C1.14065 16.9531 1.2344 17.0156 1.3594 17.0391C1.60159 17.1016 18.3828 17.1016 18.625 17.0391C18.7422 17.0078 18.8438 16.9453 18.961 16.8359C19.1953 16.6016 19.2656 16.3125 19.1719 16.0391ZM9.50002 5.96875C9.55471 5.83594 9.6719 5.71094 9.80471 5.64844C10.0156 5.54688 10.2813 5.63281 10.4531 5.86719C10.5313 5.96094 10.5313 6 10.5391 8.75C10.5469 11.5234 10.5469 11.5391 10.4688 11.6953C10.2813 12.0859 9.71096 12.0859 9.53127 11.6953C9.46096 11.5469 9.46096 11.4219 9.46096 8.80469C9.46096 6.95313 9.46877 6.03906 9.50002 5.96875ZM10.5078 14.4609C10.2031 14.7188 9.7969 14.7188 9.49221 14.4609C8.97659 14.0156 9.18752 13.2031 9.85159 13.0781C10.6563 12.9297 11.125 13.9375 10.5078 14.4609Z" fill="#FC5555"/>
</svg>
