<svg width="25" height="22" viewBox="0 0 25 22" fill="none" xmlns="http://www.w3.org/2000/svg">
<path d="M9.26022 0.0493207C5.43005 0.304341 1.99928 2.67509 0.64745 5.9998C-0.612205 9.09782 -0.00798035 12.5548 2.23482 15.1144C2.40892 15.3128 2.80832 15.7095 3.1258 15.9834C4.55955 17.249 6.31078 18.0708 8.32828 18.4297C9.03491 18.5525 11.0729 18.5525 11.7488 18.4297C13.2235 18.1558 14.4013 17.7213 15.538 17.0412C15.7531 16.909 15.9374 16.8051 15.9681 16.8051C15.9886 16.8051 16.9513 17.863 18.1085 19.1664C19.2555 20.4698 20.2694 21.5938 20.3513 21.6599C20.6381 21.9055 21.017 22.0377 21.314 21.9905C21.4676 21.9622 21.7236 21.7544 22.7887 20.7721C24.161 19.5159 24.2327 19.4309 24.161 19.072C24.0893 18.6847 23.905 18.5241 21.1501 16.4367C19.6754 15.3222 18.4772 14.3966 18.4772 14.3777C18.4772 14.3494 18.5694 14.1888 18.6923 14.0093C19.7573 12.3848 20.2694 10.2596 20.0441 8.3611C19.5525 4.21465 16.2959 0.946615 11.8512 0.162663C11.4621 0.0965466 10.1614 -0.0167958 9.91565 0.00209465C9.8542 0.00209465 9.56745 0.0209851 9.26022 0.0493207ZM10.6837 1.58889C12.8241 1.74946 14.6266 2.5523 16.1218 3.98797C18.9176 6.67985 19.1838 10.8357 16.7567 13.9054C16.388 14.3777 15.4663 15.2089 14.944 15.5489C12.8548 16.9184 10.2741 17.3435 7.81622 16.7295C5.74752 16.2101 3.89388 14.8877 2.79808 13.1498C0.944442 10.2029 1.42577 6.43428 3.96557 3.98797C5.58366 2.42951 7.47827 1.655 9.93613 1.55111C10.0181 1.54166 10.3458 1.56055 10.6837 1.58889Z" fill="#73BFFF"/>
<path d="M9.35253 3.2323C8.84048 3.28897 8.07239 3.46843 7.6013 3.63844C5.75791 4.3185 4.31391 5.89584 3.65848 7.99268C3.24884 9.30556 3.24884 10.2784 3.67896 10.5334C4.06812 10.7696 4.82597 10.8829 4.91814 10.7129C4.94886 10.6657 4.97958 10.3918 5.00006 10.099C5.1844 7.06705 7.69347 4.65852 10.8477 4.47906L11.452 4.44128L11.5646 4.23349C11.6261 4.12015 11.6875 3.9218 11.708 3.78012C11.749 3.49676 11.6773 3.39287 11.37 3.26063C11.1345 3.20396 9.95676 3.16618 9.35253 3.2323Z" fill="#73BFFF"/>
</svg>
