<svg width="28" height="20" viewBox="0 0 28 20" fill="none" xmlns="http://www.w3.org/2000/svg">
<path d="M12.3105 0.0697547C9.74414 0.421317 7.48242 1.54632 5.66602 3.38616C4.66992 4.39397 3.9668 5.37835 3.36914 6.63226C3.11133 7.17132 2.63086 8.54241 2.57227 8.94085C2.54883 9.06975 2.51367 9.18694 2.49023 9.19866C2.4668 9.21038 2.25586 9.25726 2.0332 9.28069C1.06055 9.4096 0.322266 10.0424 0.0878906 10.9799C-0.0292969 11.4369 -0.0292969 13.7573 0.0878906 14.226C0.263672 14.894 0.708984 15.4213 1.35352 15.7377L1.70508 15.9018L3.13477 15.9135C4.54102 15.9252 4.57617 15.9252 4.78711 15.808C4.9043 15.7377 5.05664 15.5854 5.12695 15.4682C5.25586 15.2573 5.25586 15.2573 5.25586 12.6205C5.25586 10.3002 5.24414 9.96038 5.17383 9.79632C5.06836 9.57366 4.81055 9.351 4.61133 9.30413C4.5293 9.29241 4.45898 9.25725 4.45898 9.23382C4.45898 9.09319 4.91602 7.83929 5.12695 7.40569C7.23633 2.99944 12.2871 0.831474 16.8809 2.36663C19.7988 3.33929 22.084 5.62444 23.0449 8.56585C23.1621 8.91741 23.2559 9.2221 23.2559 9.24554C23.2559 9.26897 23.1855 9.30413 23.1035 9.31585C22.9043 9.36272 22.6465 9.58538 22.541 9.80804C22.4707 9.9721 22.459 10.3119 22.459 12.6323C22.459 15.269 22.459 15.269 22.5879 15.4799C22.6582 15.5971 22.7988 15.7494 22.9277 15.8198C23.1387 15.9487 23.1621 15.9487 24.5449 15.9252C25.459 15.9135 26.0215 15.8783 26.1504 15.8432C26.4785 15.7377 27.0176 15.351 27.2285 15.058C27.6387 14.5073 27.6738 14.3666 27.6973 12.7846C27.709 11.8237 27.6973 11.2846 27.6504 11.0854C27.5098 10.4174 27.0059 9.7846 26.3848 9.49163C26.2207 9.42132 25.9043 9.32757 25.6699 9.29241C25.4355 9.25725 25.2363 9.2221 25.2129 9.21038C25.1895 9.19866 25.1543 9.08147 25.1426 8.95257C25.0605 8.48382 24.5684 7.11272 24.2402 6.43304C22.5176 3.08147 19.4473 0.796317 15.7676 0.140067C14.9473 -0.0122763 13.1426 -0.0474328 12.3105 0.0697547Z" fill="#A5CE37"/>
<path d="M13.1777 3.44478C11.8066 3.55024 10.4707 4.01899 9.28711 4.80415C8.63086 5.23774 7.54102 6.32759 7.11914 6.97212C6.52148 7.86274 6.07617 8.92915 5.86523 9.9604C5.72461 10.6518 5.72461 12.4565 5.86523 13.1245C6.55664 16.3588 8.9707 18.7963 12.1816 19.4995C12.8262 19.6401 14.1387 19.6987 14.8301 19.6049C16.623 19.3823 18.2871 18.562 19.5645 17.2846C19.998 16.8393 20.584 16.1245 20.584 16.0307C20.584 16.0073 19.7051 15.9838 18.627 15.9838H16.6699L16.541 16.1479C16.377 16.3823 15.9199 16.6635 15.5449 16.769C15.3105 16.8393 15.0996 16.851 14.7715 16.8276C13.2012 16.7338 12.4395 15.269 13.4473 14.2963C14.2441 13.5346 15.6738 13.5463 16.459 14.3432L16.6934 14.5776H19.0371H21.3809L21.5449 14.0502C21.8496 13.1362 21.9434 12.3745 21.9082 11.2846C21.873 10.2534 21.8027 9.84321 21.5215 8.98775C21.123 7.80415 20.5371 6.8315 19.6348 5.894C17.959 4.13618 15.627 3.25728 13.1777 3.44478Z" fill="#A5CE37"/>
</svg>
